%TF.GenerationSoftware,KiCad,Pcbnew,5.1.6+dfsg1-1*%
%TF.CreationDate,2021-09-27T21:48:19-05:00*%
%TF.ProjectId,USB-BREAKOUT,5553422d-4252-4454-914b-4f55542e6b69,rev?*%
%TF.SameCoordinates,Original*%
%TF.FileFunction,Copper,L1,Top*%
%TF.FilePolarity,Positive*%
%FSLAX46Y46*%
G04 Gerber Fmt 4.6, Leading zero omitted, Abs format (unit mm)*
G04 Created by KiCad (PCBNEW 5.1.6+dfsg1-1) date 2021-09-27 21:48:19*
%MOMM*%
%LPD*%
G01*
G04 APERTURE LIST*
%TA.AperFunction,ComponentPad*%
%ADD10C,3.000000*%
%TD*%
%TA.AperFunction,ComponentPad*%
%ADD11C,1.200000*%
%TD*%
%TA.AperFunction,ComponentPad*%
%ADD12R,1.700000X1.700000*%
%TD*%
%TA.AperFunction,ComponentPad*%
%ADD13O,1.700000X1.700000*%
%TD*%
%TA.AperFunction,SMDPad,CuDef*%
%ADD14C,0.100000*%
%TD*%
%TA.AperFunction,Conductor*%
%ADD15C,0.250000*%
%TD*%
%TA.AperFunction,Conductor*%
%ADD16C,0.700000*%
%TD*%
%TA.AperFunction,Conductor*%
%ADD17C,0.254000*%
%TD*%
G04 APERTURE END LIST*
D10*
%TO.P,J1,10*%
%TO.N,/SHIELD*%
X86416000Y-69816000D03*
X86416000Y-56676000D03*
D11*
%TO.P,J1,9*%
%TO.N,/SSTX+*%
X89916000Y-59246000D03*
%TO.P,J1,8*%
%TO.N,/SSTX-*%
X89916000Y-61246000D03*
%TO.P,J1,7*%
%TO.N,/DRAIN*%
X89916000Y-63246000D03*
%TO.P,J1,6*%
%TO.N,/SSRX+*%
X89916000Y-65246000D03*
%TO.P,J1,5*%
%TO.N,/SSRX-*%
X89916000Y-67246000D03*
%TO.P,J1,4*%
%TO.N,/GND*%
X88416000Y-66746000D03*
%TO.P,J1,3*%
%TO.N,/D+*%
X88416000Y-64246000D03*
%TO.P,J1,2*%
%TO.N,/D-*%
X88416000Y-62246000D03*
%TO.P,J1,1*%
%TO.N,/VBUS*%
X88416000Y-59746000D03*
%TD*%
D12*
%TO.P,J3,1*%
%TO.N,/VBUS*%
X88646000Y-51308000D03*
%TD*%
%TO.P,J4,1*%
%TO.N,/GND*%
X88900000Y-75184000D03*
%TD*%
D13*
%TO.P,J2,7*%
%TO.N,/SSTX+*%
X101346000Y-55626000D03*
%TO.P,J2,6*%
%TO.N,/SSTX-*%
X101346000Y-58166000D03*
%TO.P,J2,5*%
%TO.N,/DRAIN*%
X101346000Y-60706000D03*
%TO.P,J2,4*%
%TO.N,/SSRX+*%
X101346000Y-63246000D03*
%TO.P,J2,3*%
%TO.N,/SSRX-*%
X101346000Y-65786000D03*
%TO.P,J2,2*%
%TO.N,/D-*%
X101346000Y-68326000D03*
D12*
%TO.P,J2,1*%
%TO.N,/D+*%
X101346000Y-70866000D03*
%TD*%
%TA.AperFunction,SMDPad,CuDef*%
D14*
%TO.P,J5,2*%
%TO.N,/GND*%
G36*
X82791398Y-75580000D02*
G01*
X82791398Y-75604534D01*
X82786588Y-75653365D01*
X82777016Y-75701490D01*
X82762772Y-75748445D01*
X82743995Y-75793778D01*
X82720864Y-75837051D01*
X82693604Y-75877850D01*
X82662476Y-75915779D01*
X82627779Y-75950476D01*
X82589850Y-75981604D01*
X82549051Y-76008864D01*
X82505778Y-76031995D01*
X82460445Y-76050772D01*
X82413490Y-76065016D01*
X82365365Y-76074588D01*
X82316534Y-76079398D01*
X82292000Y-76079398D01*
X82292000Y-76080000D01*
X81792000Y-76080000D01*
X81792000Y-76079398D01*
X81767466Y-76079398D01*
X81718635Y-76074588D01*
X81670510Y-76065016D01*
X81623555Y-76050772D01*
X81578222Y-76031995D01*
X81534949Y-76008864D01*
X81494150Y-75981604D01*
X81456221Y-75950476D01*
X81421524Y-75915779D01*
X81390396Y-75877850D01*
X81363136Y-75837051D01*
X81340005Y-75793778D01*
X81321228Y-75748445D01*
X81306984Y-75701490D01*
X81297412Y-75653365D01*
X81292602Y-75604534D01*
X81292602Y-75580000D01*
X81292000Y-75580000D01*
X81292000Y-75080000D01*
X82792000Y-75080000D01*
X82792000Y-75580000D01*
X82791398Y-75580000D01*
G37*
%TD.AperFunction*%
%TA.AperFunction,SMDPad,CuDef*%
%TO.P,J5,1*%
%TO.N,/SHIELD*%
G36*
X81292000Y-74780000D02*
G01*
X81292000Y-74280000D01*
X81292602Y-74280000D01*
X81292602Y-74255466D01*
X81297412Y-74206635D01*
X81306984Y-74158510D01*
X81321228Y-74111555D01*
X81340005Y-74066222D01*
X81363136Y-74022949D01*
X81390396Y-73982150D01*
X81421524Y-73944221D01*
X81456221Y-73909524D01*
X81494150Y-73878396D01*
X81534949Y-73851136D01*
X81578222Y-73828005D01*
X81623555Y-73809228D01*
X81670510Y-73794984D01*
X81718635Y-73785412D01*
X81767466Y-73780602D01*
X81792000Y-73780602D01*
X81792000Y-73780000D01*
X82292000Y-73780000D01*
X82292000Y-73780602D01*
X82316534Y-73780602D01*
X82365365Y-73785412D01*
X82413490Y-73794984D01*
X82460445Y-73809228D01*
X82505778Y-73828005D01*
X82549051Y-73851136D01*
X82589850Y-73878396D01*
X82627779Y-73909524D01*
X82662476Y-73944221D01*
X82693604Y-73982150D01*
X82720864Y-74022949D01*
X82743995Y-74066222D01*
X82762772Y-74111555D01*
X82777016Y-74158510D01*
X82786588Y-74206635D01*
X82791398Y-74255466D01*
X82791398Y-74280000D01*
X82792000Y-74280000D01*
X82792000Y-74780000D01*
X81292000Y-74780000D01*
G37*
%TD.AperFunction*%
%TD*%
D15*
%TO.N,/SHIELD*%
X86416000Y-69816000D02*
X86416000Y-56676000D01*
X86416000Y-69906000D02*
X86416000Y-69816000D01*
X82042000Y-74280000D02*
X86416000Y-69906000D01*
%TO.N,/SSTX+*%
X97726000Y-59246000D02*
X101346000Y-55626000D01*
X89916000Y-59246000D02*
X97726000Y-59246000D01*
%TO.N,/SSTX-*%
X98266000Y-61246000D02*
X101346000Y-58166000D01*
X89916000Y-61246000D02*
X98266000Y-61246000D01*
%TO.N,/DRAIN*%
X98806000Y-63246000D02*
X101346000Y-60706000D01*
X89916000Y-63246000D02*
X98806000Y-63246000D01*
%TO.N,/SSRX+*%
X99346000Y-65246000D02*
X101346000Y-63246000D01*
X89916000Y-65246000D02*
X99346000Y-65246000D01*
%TO.N,/SSRX-*%
X99886000Y-67246000D02*
X101346000Y-65786000D01*
X89916000Y-67246000D02*
X99886000Y-67246000D01*
%TO.N,/GND*%
X88504000Y-75580000D02*
X88900000Y-75184000D01*
X82042000Y-75580000D02*
X88504000Y-75580000D01*
X88416000Y-74700000D02*
X88900000Y-75184000D01*
X88416000Y-66746000D02*
X88416000Y-74700000D01*
D16*
%TO.N,/VBUS*%
X88646000Y-58591998D02*
X88646000Y-51308000D01*
X88416000Y-58821998D02*
X88646000Y-58591998D01*
X88416000Y-59746000D02*
X88416000Y-58821998D01*
%TD*%
D17*
%TO.N,/GND*%
G36*
X103480000Y-78080000D02*
G01*
X76860000Y-78080000D01*
X76860000Y-76034000D01*
X87411928Y-76034000D01*
X87424188Y-76158482D01*
X87460498Y-76278180D01*
X87519463Y-76388494D01*
X87598815Y-76485185D01*
X87695506Y-76564537D01*
X87805820Y-76623502D01*
X87925518Y-76659812D01*
X88050000Y-76672072D01*
X88614250Y-76669000D01*
X88773000Y-76510250D01*
X88773000Y-75311000D01*
X89027000Y-75311000D01*
X89027000Y-76510250D01*
X89185750Y-76669000D01*
X89750000Y-76672072D01*
X89874482Y-76659812D01*
X89994180Y-76623502D01*
X90104494Y-76564537D01*
X90201185Y-76485185D01*
X90280537Y-76388494D01*
X90339502Y-76278180D01*
X90375812Y-76158482D01*
X90388072Y-76034000D01*
X90385000Y-75469750D01*
X90226250Y-75311000D01*
X89027000Y-75311000D01*
X88773000Y-75311000D01*
X87573750Y-75311000D01*
X87415000Y-75469750D01*
X87411928Y-76034000D01*
X76860000Y-76034000D01*
X76860000Y-74280000D01*
X80653928Y-74280000D01*
X80653928Y-74780000D01*
X80666188Y-74904482D01*
X80702498Y-75024180D01*
X80761463Y-75134494D01*
X80840815Y-75231185D01*
X80937506Y-75310537D01*
X81047820Y-75369502D01*
X81167518Y-75405812D01*
X81292000Y-75418072D01*
X82792000Y-75418072D01*
X82916482Y-75405812D01*
X83036180Y-75369502D01*
X83146494Y-75310537D01*
X83243185Y-75231185D01*
X83322537Y-75134494D01*
X83381502Y-75024180D01*
X83417812Y-74904482D01*
X83430072Y-74780000D01*
X83430072Y-74334000D01*
X87411928Y-74334000D01*
X87415000Y-74898250D01*
X87573750Y-75057000D01*
X88773000Y-75057000D01*
X88773000Y-73857750D01*
X89027000Y-73857750D01*
X89027000Y-75057000D01*
X90226250Y-75057000D01*
X90385000Y-74898250D01*
X90388072Y-74334000D01*
X90375812Y-74209518D01*
X90339502Y-74089820D01*
X90280537Y-73979506D01*
X90201185Y-73882815D01*
X90104494Y-73803463D01*
X89994180Y-73744498D01*
X89874482Y-73708188D01*
X89750000Y-73695928D01*
X89185750Y-73699000D01*
X89027000Y-73857750D01*
X88773000Y-73857750D01*
X88614250Y-73699000D01*
X88050000Y-73695928D01*
X87925518Y-73708188D01*
X87805820Y-73744498D01*
X87695506Y-73803463D01*
X87598815Y-73882815D01*
X87519463Y-73979506D01*
X87460498Y-74089820D01*
X87424188Y-74209518D01*
X87411928Y-74334000D01*
X83430072Y-74334000D01*
X83430072Y-74280000D01*
X83427664Y-74255550D01*
X83427664Y-74230991D01*
X83415404Y-74106510D01*
X83396282Y-74010377D01*
X83393988Y-74002814D01*
X85605581Y-71791221D01*
X85793244Y-71868953D01*
X86205721Y-71951000D01*
X86626279Y-71951000D01*
X87038756Y-71868953D01*
X87427302Y-71708012D01*
X87776983Y-71474363D01*
X88074363Y-71176983D01*
X88308012Y-70827302D01*
X88468953Y-70438756D01*
X88551000Y-70026279D01*
X88551000Y-69605721D01*
X88468953Y-69193244D01*
X88308012Y-68804698D01*
X88074363Y-68455017D01*
X87776983Y-68157637D01*
X87427302Y-67923988D01*
X87176000Y-67819895D01*
X87176000Y-66824438D01*
X87177505Y-66824438D01*
X87216605Y-67064549D01*
X87301798Y-67292418D01*
X87342652Y-67368852D01*
X87566236Y-67416159D01*
X88236395Y-66746000D01*
X87566236Y-66075841D01*
X87342652Y-66123148D01*
X87241763Y-66344516D01*
X87186000Y-66581313D01*
X87177505Y-66824438D01*
X87176000Y-66824438D01*
X87176000Y-58672105D01*
X87427302Y-58568012D01*
X87472984Y-58537488D01*
X87445253Y-58628905D01*
X87426235Y-58821998D01*
X87431001Y-58870387D01*
X87431001Y-58997214D01*
X87321557Y-59161008D01*
X87228460Y-59385764D01*
X87181000Y-59624363D01*
X87181000Y-59867637D01*
X87228460Y-60106236D01*
X87321557Y-60330992D01*
X87456713Y-60533267D01*
X87628733Y-60705287D01*
X87831008Y-60840443D01*
X88055764Y-60933540D01*
X88294363Y-60981000D01*
X88537637Y-60981000D01*
X88716597Y-60945403D01*
X88697235Y-61042746D01*
X88537637Y-61011000D01*
X88294363Y-61011000D01*
X88055764Y-61058460D01*
X87831008Y-61151557D01*
X87628733Y-61286713D01*
X87456713Y-61458733D01*
X87321557Y-61661008D01*
X87228460Y-61885764D01*
X87181000Y-62124363D01*
X87181000Y-62367637D01*
X87228460Y-62606236D01*
X87321557Y-62830992D01*
X87456713Y-63033267D01*
X87628733Y-63205287D01*
X87689664Y-63246000D01*
X87628733Y-63286713D01*
X87456713Y-63458733D01*
X87321557Y-63661008D01*
X87228460Y-63885764D01*
X87181000Y-64124363D01*
X87181000Y-64367637D01*
X87228460Y-64606236D01*
X87321557Y-64830992D01*
X87456713Y-65033267D01*
X87628733Y-65205287D01*
X87831008Y-65340443D01*
X88055764Y-65433540D01*
X88294363Y-65481000D01*
X88537637Y-65481000D01*
X88697235Y-65449254D01*
X88716891Y-65548074D01*
X88580687Y-65516000D01*
X88337562Y-65507505D01*
X88097451Y-65546605D01*
X87869582Y-65631798D01*
X87793148Y-65672652D01*
X87745841Y-65896236D01*
X88416000Y-66566395D01*
X88430143Y-66552253D01*
X88609748Y-66731858D01*
X88595605Y-66746000D01*
X88609748Y-66760143D01*
X88430143Y-66939748D01*
X88416000Y-66925605D01*
X87745841Y-67595764D01*
X87793148Y-67819348D01*
X88014516Y-67920237D01*
X88251313Y-67976000D01*
X88494438Y-67984495D01*
X88734549Y-67945395D01*
X88865329Y-67896501D01*
X88956713Y-68033267D01*
X89128733Y-68205287D01*
X89331008Y-68340443D01*
X89555764Y-68433540D01*
X89794363Y-68481000D01*
X90037637Y-68481000D01*
X90276236Y-68433540D01*
X90500992Y-68340443D01*
X90703267Y-68205287D01*
X90875287Y-68033267D01*
X90893506Y-68006000D01*
X99848678Y-68006000D01*
X99886000Y-68009676D01*
X99895005Y-68008789D01*
X99861000Y-68179740D01*
X99861000Y-68472260D01*
X99918068Y-68759158D01*
X100030010Y-69029411D01*
X100192525Y-69272632D01*
X100324380Y-69404487D01*
X100251820Y-69426498D01*
X100141506Y-69485463D01*
X100044815Y-69564815D01*
X99965463Y-69661506D01*
X99906498Y-69771820D01*
X99870188Y-69891518D01*
X99857928Y-70016000D01*
X99857928Y-71716000D01*
X99870188Y-71840482D01*
X99906498Y-71960180D01*
X99965463Y-72070494D01*
X100044815Y-72167185D01*
X100141506Y-72246537D01*
X100251820Y-72305502D01*
X100371518Y-72341812D01*
X100496000Y-72354072D01*
X102196000Y-72354072D01*
X102320482Y-72341812D01*
X102440180Y-72305502D01*
X102550494Y-72246537D01*
X102647185Y-72167185D01*
X102726537Y-72070494D01*
X102785502Y-71960180D01*
X102821812Y-71840482D01*
X102834072Y-71716000D01*
X102834072Y-70016000D01*
X102821812Y-69891518D01*
X102785502Y-69771820D01*
X102726537Y-69661506D01*
X102647185Y-69564815D01*
X102550494Y-69485463D01*
X102440180Y-69426498D01*
X102367620Y-69404487D01*
X102499475Y-69272632D01*
X102661990Y-69029411D01*
X102773932Y-68759158D01*
X102831000Y-68472260D01*
X102831000Y-68179740D01*
X102773932Y-67892842D01*
X102661990Y-67622589D01*
X102499475Y-67379368D01*
X102292632Y-67172525D01*
X102118240Y-67056000D01*
X102292632Y-66939475D01*
X102499475Y-66732632D01*
X102661990Y-66489411D01*
X102773932Y-66219158D01*
X102831000Y-65932260D01*
X102831000Y-65639740D01*
X102773932Y-65352842D01*
X102661990Y-65082589D01*
X102499475Y-64839368D01*
X102292632Y-64632525D01*
X102118240Y-64516000D01*
X102292632Y-64399475D01*
X102499475Y-64192632D01*
X102661990Y-63949411D01*
X102773932Y-63679158D01*
X102831000Y-63392260D01*
X102831000Y-63099740D01*
X102773932Y-62812842D01*
X102661990Y-62542589D01*
X102499475Y-62299368D01*
X102292632Y-62092525D01*
X102118240Y-61976000D01*
X102292632Y-61859475D01*
X102499475Y-61652632D01*
X102661990Y-61409411D01*
X102773932Y-61139158D01*
X102831000Y-60852260D01*
X102831000Y-60559740D01*
X102773932Y-60272842D01*
X102661990Y-60002589D01*
X102499475Y-59759368D01*
X102292632Y-59552525D01*
X102118240Y-59436000D01*
X102292632Y-59319475D01*
X102499475Y-59112632D01*
X102661990Y-58869411D01*
X102773932Y-58599158D01*
X102831000Y-58312260D01*
X102831000Y-58019740D01*
X102773932Y-57732842D01*
X102661990Y-57462589D01*
X102499475Y-57219368D01*
X102292632Y-57012525D01*
X102118240Y-56896000D01*
X102292632Y-56779475D01*
X102499475Y-56572632D01*
X102661990Y-56329411D01*
X102773932Y-56059158D01*
X102831000Y-55772260D01*
X102831000Y-55479740D01*
X102773932Y-55192842D01*
X102661990Y-54922589D01*
X102499475Y-54679368D01*
X102292632Y-54472525D01*
X102049411Y-54310010D01*
X101779158Y-54198068D01*
X101492260Y-54141000D01*
X101199740Y-54141000D01*
X100912842Y-54198068D01*
X100642589Y-54310010D01*
X100399368Y-54472525D01*
X100192525Y-54679368D01*
X100030010Y-54922589D01*
X99918068Y-55192842D01*
X99861000Y-55479740D01*
X99861000Y-55772260D01*
X99904790Y-55992408D01*
X97411199Y-58486000D01*
X90893506Y-58486000D01*
X90875287Y-58458733D01*
X90703267Y-58286713D01*
X90500992Y-58151557D01*
X90276236Y-58058460D01*
X90037637Y-58011000D01*
X89794363Y-58011000D01*
X89631000Y-58043495D01*
X89631000Y-52780621D01*
X89740180Y-52747502D01*
X89850494Y-52688537D01*
X89947185Y-52609185D01*
X90026537Y-52512494D01*
X90085502Y-52402180D01*
X90121812Y-52282482D01*
X90134072Y-52158000D01*
X90134072Y-50458000D01*
X90121812Y-50333518D01*
X90085502Y-50213820D01*
X90026537Y-50103506D01*
X89947185Y-50006815D01*
X89850494Y-49927463D01*
X89740180Y-49868498D01*
X89620482Y-49832188D01*
X89496000Y-49819928D01*
X87796000Y-49819928D01*
X87671518Y-49832188D01*
X87551820Y-49868498D01*
X87441506Y-49927463D01*
X87344815Y-50006815D01*
X87265463Y-50103506D01*
X87206498Y-50213820D01*
X87170188Y-50333518D01*
X87157928Y-50458000D01*
X87157928Y-52158000D01*
X87170188Y-52282482D01*
X87206498Y-52402180D01*
X87265463Y-52512494D01*
X87344815Y-52609185D01*
X87441506Y-52688537D01*
X87551820Y-52747502D01*
X87661001Y-52780622D01*
X87661001Y-54940140D01*
X87427302Y-54783988D01*
X87038756Y-54623047D01*
X86626279Y-54541000D01*
X86205721Y-54541000D01*
X85793244Y-54623047D01*
X85404698Y-54783988D01*
X85055017Y-55017637D01*
X84757637Y-55315017D01*
X84523988Y-55664698D01*
X84363047Y-56053244D01*
X84281000Y-56465721D01*
X84281000Y-56886279D01*
X84363047Y-57298756D01*
X84523988Y-57687302D01*
X84757637Y-58036983D01*
X85055017Y-58334363D01*
X85404698Y-58568012D01*
X85656001Y-58672105D01*
X85656000Y-67819895D01*
X85404698Y-67923988D01*
X85055017Y-68157637D01*
X84757637Y-68455017D01*
X84523988Y-68804698D01*
X84363047Y-69193244D01*
X84281000Y-69605721D01*
X84281000Y-70026279D01*
X84363047Y-70438756D01*
X84493500Y-70753698D01*
X82105271Y-73141928D01*
X81792000Y-73141928D01*
X81767550Y-73144336D01*
X81742991Y-73144336D01*
X81618510Y-73156596D01*
X81522377Y-73175718D01*
X81402681Y-73212027D01*
X81312125Y-73249536D01*
X81201808Y-73308502D01*
X81120309Y-73362958D01*
X81023618Y-73442310D01*
X80954310Y-73511618D01*
X80874958Y-73608309D01*
X80820502Y-73689808D01*
X80761536Y-73800125D01*
X80724027Y-73890681D01*
X80687718Y-74010377D01*
X80668596Y-74106510D01*
X80656336Y-74230991D01*
X80656336Y-74255550D01*
X80653928Y-74280000D01*
X76860000Y-74280000D01*
X76860000Y-48920000D01*
X103480001Y-48920000D01*
X103480000Y-78080000D01*
G37*
X103480000Y-78080000D02*
X76860000Y-78080000D01*
X76860000Y-76034000D01*
X87411928Y-76034000D01*
X87424188Y-76158482D01*
X87460498Y-76278180D01*
X87519463Y-76388494D01*
X87598815Y-76485185D01*
X87695506Y-76564537D01*
X87805820Y-76623502D01*
X87925518Y-76659812D01*
X88050000Y-76672072D01*
X88614250Y-76669000D01*
X88773000Y-76510250D01*
X88773000Y-75311000D01*
X89027000Y-75311000D01*
X89027000Y-76510250D01*
X89185750Y-76669000D01*
X89750000Y-76672072D01*
X89874482Y-76659812D01*
X89994180Y-76623502D01*
X90104494Y-76564537D01*
X90201185Y-76485185D01*
X90280537Y-76388494D01*
X90339502Y-76278180D01*
X90375812Y-76158482D01*
X90388072Y-76034000D01*
X90385000Y-75469750D01*
X90226250Y-75311000D01*
X89027000Y-75311000D01*
X88773000Y-75311000D01*
X87573750Y-75311000D01*
X87415000Y-75469750D01*
X87411928Y-76034000D01*
X76860000Y-76034000D01*
X76860000Y-74280000D01*
X80653928Y-74280000D01*
X80653928Y-74780000D01*
X80666188Y-74904482D01*
X80702498Y-75024180D01*
X80761463Y-75134494D01*
X80840815Y-75231185D01*
X80937506Y-75310537D01*
X81047820Y-75369502D01*
X81167518Y-75405812D01*
X81292000Y-75418072D01*
X82792000Y-75418072D01*
X82916482Y-75405812D01*
X83036180Y-75369502D01*
X83146494Y-75310537D01*
X83243185Y-75231185D01*
X83322537Y-75134494D01*
X83381502Y-75024180D01*
X83417812Y-74904482D01*
X83430072Y-74780000D01*
X83430072Y-74334000D01*
X87411928Y-74334000D01*
X87415000Y-74898250D01*
X87573750Y-75057000D01*
X88773000Y-75057000D01*
X88773000Y-73857750D01*
X89027000Y-73857750D01*
X89027000Y-75057000D01*
X90226250Y-75057000D01*
X90385000Y-74898250D01*
X90388072Y-74334000D01*
X90375812Y-74209518D01*
X90339502Y-74089820D01*
X90280537Y-73979506D01*
X90201185Y-73882815D01*
X90104494Y-73803463D01*
X89994180Y-73744498D01*
X89874482Y-73708188D01*
X89750000Y-73695928D01*
X89185750Y-73699000D01*
X89027000Y-73857750D01*
X88773000Y-73857750D01*
X88614250Y-73699000D01*
X88050000Y-73695928D01*
X87925518Y-73708188D01*
X87805820Y-73744498D01*
X87695506Y-73803463D01*
X87598815Y-73882815D01*
X87519463Y-73979506D01*
X87460498Y-74089820D01*
X87424188Y-74209518D01*
X87411928Y-74334000D01*
X83430072Y-74334000D01*
X83430072Y-74280000D01*
X83427664Y-74255550D01*
X83427664Y-74230991D01*
X83415404Y-74106510D01*
X83396282Y-74010377D01*
X83393988Y-74002814D01*
X85605581Y-71791221D01*
X85793244Y-71868953D01*
X86205721Y-71951000D01*
X86626279Y-71951000D01*
X87038756Y-71868953D01*
X87427302Y-71708012D01*
X87776983Y-71474363D01*
X88074363Y-71176983D01*
X88308012Y-70827302D01*
X88468953Y-70438756D01*
X88551000Y-70026279D01*
X88551000Y-69605721D01*
X88468953Y-69193244D01*
X88308012Y-68804698D01*
X88074363Y-68455017D01*
X87776983Y-68157637D01*
X87427302Y-67923988D01*
X87176000Y-67819895D01*
X87176000Y-66824438D01*
X87177505Y-66824438D01*
X87216605Y-67064549D01*
X87301798Y-67292418D01*
X87342652Y-67368852D01*
X87566236Y-67416159D01*
X88236395Y-66746000D01*
X87566236Y-66075841D01*
X87342652Y-66123148D01*
X87241763Y-66344516D01*
X87186000Y-66581313D01*
X87177505Y-66824438D01*
X87176000Y-66824438D01*
X87176000Y-58672105D01*
X87427302Y-58568012D01*
X87472984Y-58537488D01*
X87445253Y-58628905D01*
X87426235Y-58821998D01*
X87431001Y-58870387D01*
X87431001Y-58997214D01*
X87321557Y-59161008D01*
X87228460Y-59385764D01*
X87181000Y-59624363D01*
X87181000Y-59867637D01*
X87228460Y-60106236D01*
X87321557Y-60330992D01*
X87456713Y-60533267D01*
X87628733Y-60705287D01*
X87831008Y-60840443D01*
X88055764Y-60933540D01*
X88294363Y-60981000D01*
X88537637Y-60981000D01*
X88716597Y-60945403D01*
X88697235Y-61042746D01*
X88537637Y-61011000D01*
X88294363Y-61011000D01*
X88055764Y-61058460D01*
X87831008Y-61151557D01*
X87628733Y-61286713D01*
X87456713Y-61458733D01*
X87321557Y-61661008D01*
X87228460Y-61885764D01*
X87181000Y-62124363D01*
X87181000Y-62367637D01*
X87228460Y-62606236D01*
X87321557Y-62830992D01*
X87456713Y-63033267D01*
X87628733Y-63205287D01*
X87689664Y-63246000D01*
X87628733Y-63286713D01*
X87456713Y-63458733D01*
X87321557Y-63661008D01*
X87228460Y-63885764D01*
X87181000Y-64124363D01*
X87181000Y-64367637D01*
X87228460Y-64606236D01*
X87321557Y-64830992D01*
X87456713Y-65033267D01*
X87628733Y-65205287D01*
X87831008Y-65340443D01*
X88055764Y-65433540D01*
X88294363Y-65481000D01*
X88537637Y-65481000D01*
X88697235Y-65449254D01*
X88716891Y-65548074D01*
X88580687Y-65516000D01*
X88337562Y-65507505D01*
X88097451Y-65546605D01*
X87869582Y-65631798D01*
X87793148Y-65672652D01*
X87745841Y-65896236D01*
X88416000Y-66566395D01*
X88430143Y-66552253D01*
X88609748Y-66731858D01*
X88595605Y-66746000D01*
X88609748Y-66760143D01*
X88430143Y-66939748D01*
X88416000Y-66925605D01*
X87745841Y-67595764D01*
X87793148Y-67819348D01*
X88014516Y-67920237D01*
X88251313Y-67976000D01*
X88494438Y-67984495D01*
X88734549Y-67945395D01*
X88865329Y-67896501D01*
X88956713Y-68033267D01*
X89128733Y-68205287D01*
X89331008Y-68340443D01*
X89555764Y-68433540D01*
X89794363Y-68481000D01*
X90037637Y-68481000D01*
X90276236Y-68433540D01*
X90500992Y-68340443D01*
X90703267Y-68205287D01*
X90875287Y-68033267D01*
X90893506Y-68006000D01*
X99848678Y-68006000D01*
X99886000Y-68009676D01*
X99895005Y-68008789D01*
X99861000Y-68179740D01*
X99861000Y-68472260D01*
X99918068Y-68759158D01*
X100030010Y-69029411D01*
X100192525Y-69272632D01*
X100324380Y-69404487D01*
X100251820Y-69426498D01*
X100141506Y-69485463D01*
X100044815Y-69564815D01*
X99965463Y-69661506D01*
X99906498Y-69771820D01*
X99870188Y-69891518D01*
X99857928Y-70016000D01*
X99857928Y-71716000D01*
X99870188Y-71840482D01*
X99906498Y-71960180D01*
X99965463Y-72070494D01*
X100044815Y-72167185D01*
X100141506Y-72246537D01*
X100251820Y-72305502D01*
X100371518Y-72341812D01*
X100496000Y-72354072D01*
X102196000Y-72354072D01*
X102320482Y-72341812D01*
X102440180Y-72305502D01*
X102550494Y-72246537D01*
X102647185Y-72167185D01*
X102726537Y-72070494D01*
X102785502Y-71960180D01*
X102821812Y-71840482D01*
X102834072Y-71716000D01*
X102834072Y-70016000D01*
X102821812Y-69891518D01*
X102785502Y-69771820D01*
X102726537Y-69661506D01*
X102647185Y-69564815D01*
X102550494Y-69485463D01*
X102440180Y-69426498D01*
X102367620Y-69404487D01*
X102499475Y-69272632D01*
X102661990Y-69029411D01*
X102773932Y-68759158D01*
X102831000Y-68472260D01*
X102831000Y-68179740D01*
X102773932Y-67892842D01*
X102661990Y-67622589D01*
X102499475Y-67379368D01*
X102292632Y-67172525D01*
X102118240Y-67056000D01*
X102292632Y-66939475D01*
X102499475Y-66732632D01*
X102661990Y-66489411D01*
X102773932Y-66219158D01*
X102831000Y-65932260D01*
X102831000Y-65639740D01*
X102773932Y-65352842D01*
X102661990Y-65082589D01*
X102499475Y-64839368D01*
X102292632Y-64632525D01*
X102118240Y-64516000D01*
X102292632Y-64399475D01*
X102499475Y-64192632D01*
X102661990Y-63949411D01*
X102773932Y-63679158D01*
X102831000Y-63392260D01*
X102831000Y-63099740D01*
X102773932Y-62812842D01*
X102661990Y-62542589D01*
X102499475Y-62299368D01*
X102292632Y-62092525D01*
X102118240Y-61976000D01*
X102292632Y-61859475D01*
X102499475Y-61652632D01*
X102661990Y-61409411D01*
X102773932Y-61139158D01*
X102831000Y-60852260D01*
X102831000Y-60559740D01*
X102773932Y-60272842D01*
X102661990Y-60002589D01*
X102499475Y-59759368D01*
X102292632Y-59552525D01*
X102118240Y-59436000D01*
X102292632Y-59319475D01*
X102499475Y-59112632D01*
X102661990Y-58869411D01*
X102773932Y-58599158D01*
X102831000Y-58312260D01*
X102831000Y-58019740D01*
X102773932Y-57732842D01*
X102661990Y-57462589D01*
X102499475Y-57219368D01*
X102292632Y-57012525D01*
X102118240Y-56896000D01*
X102292632Y-56779475D01*
X102499475Y-56572632D01*
X102661990Y-56329411D01*
X102773932Y-56059158D01*
X102831000Y-55772260D01*
X102831000Y-55479740D01*
X102773932Y-55192842D01*
X102661990Y-54922589D01*
X102499475Y-54679368D01*
X102292632Y-54472525D01*
X102049411Y-54310010D01*
X101779158Y-54198068D01*
X101492260Y-54141000D01*
X101199740Y-54141000D01*
X100912842Y-54198068D01*
X100642589Y-54310010D01*
X100399368Y-54472525D01*
X100192525Y-54679368D01*
X100030010Y-54922589D01*
X99918068Y-55192842D01*
X99861000Y-55479740D01*
X99861000Y-55772260D01*
X99904790Y-55992408D01*
X97411199Y-58486000D01*
X90893506Y-58486000D01*
X90875287Y-58458733D01*
X90703267Y-58286713D01*
X90500992Y-58151557D01*
X90276236Y-58058460D01*
X90037637Y-58011000D01*
X89794363Y-58011000D01*
X89631000Y-58043495D01*
X89631000Y-52780621D01*
X89740180Y-52747502D01*
X89850494Y-52688537D01*
X89947185Y-52609185D01*
X90026537Y-52512494D01*
X90085502Y-52402180D01*
X90121812Y-52282482D01*
X90134072Y-52158000D01*
X90134072Y-50458000D01*
X90121812Y-50333518D01*
X90085502Y-50213820D01*
X90026537Y-50103506D01*
X89947185Y-50006815D01*
X89850494Y-49927463D01*
X89740180Y-49868498D01*
X89620482Y-49832188D01*
X89496000Y-49819928D01*
X87796000Y-49819928D01*
X87671518Y-49832188D01*
X87551820Y-49868498D01*
X87441506Y-49927463D01*
X87344815Y-50006815D01*
X87265463Y-50103506D01*
X87206498Y-50213820D01*
X87170188Y-50333518D01*
X87157928Y-50458000D01*
X87157928Y-52158000D01*
X87170188Y-52282482D01*
X87206498Y-52402180D01*
X87265463Y-52512494D01*
X87344815Y-52609185D01*
X87441506Y-52688537D01*
X87551820Y-52747502D01*
X87661001Y-52780622D01*
X87661001Y-54940140D01*
X87427302Y-54783988D01*
X87038756Y-54623047D01*
X86626279Y-54541000D01*
X86205721Y-54541000D01*
X85793244Y-54623047D01*
X85404698Y-54783988D01*
X85055017Y-55017637D01*
X84757637Y-55315017D01*
X84523988Y-55664698D01*
X84363047Y-56053244D01*
X84281000Y-56465721D01*
X84281000Y-56886279D01*
X84363047Y-57298756D01*
X84523988Y-57687302D01*
X84757637Y-58036983D01*
X85055017Y-58334363D01*
X85404698Y-58568012D01*
X85656001Y-58672105D01*
X85656000Y-67819895D01*
X85404698Y-67923988D01*
X85055017Y-68157637D01*
X84757637Y-68455017D01*
X84523988Y-68804698D01*
X84363047Y-69193244D01*
X84281000Y-69605721D01*
X84281000Y-70026279D01*
X84363047Y-70438756D01*
X84493500Y-70753698D01*
X82105271Y-73141928D01*
X81792000Y-73141928D01*
X81767550Y-73144336D01*
X81742991Y-73144336D01*
X81618510Y-73156596D01*
X81522377Y-73175718D01*
X81402681Y-73212027D01*
X81312125Y-73249536D01*
X81201808Y-73308502D01*
X81120309Y-73362958D01*
X81023618Y-73442310D01*
X80954310Y-73511618D01*
X80874958Y-73608309D01*
X80820502Y-73689808D01*
X80761536Y-73800125D01*
X80724027Y-73890681D01*
X80687718Y-74010377D01*
X80668596Y-74106510D01*
X80656336Y-74230991D01*
X80656336Y-74255550D01*
X80653928Y-74280000D01*
X76860000Y-74280000D01*
X76860000Y-48920000D01*
X103480001Y-48920000D01*
X103480000Y-78080000D01*
%TD*%
M02*
