M48
; DRILL file {KiCad 5.1.6+dfsg1-1} date Mon Sep 27 21:48:22 2021
; FORMAT={-:-/ absolute / inch / decimal}
; #@! TF.CreationDate,2021-09-27T21:48:22-05:00
; #@! TF.GenerationSoftware,Kicad,Pcbnew,5.1.6+dfsg1-1
; #@! TF.FileFunction,Plated,1,2,PTH
FMAT,2
INCH
T1C0.0276
T2C0.0394
T3C0.0906
%
G90
G05
T1
X3.4809Y-2.3522
X3.4809Y-2.4506
X3.4809Y-2.5294
X3.4809Y-2.6278
X3.54Y-2.3325
X3.54Y-2.4113
X3.54Y-2.49
X3.54Y-2.5687
X3.54Y-2.6475
T2
X3.49Y-2.02
X3.99Y-2.19
X3.99Y-2.29
X3.99Y-2.39
X3.99Y-2.49
X3.99Y-2.59
X3.99Y-2.69
X3.99Y-2.79
X3.5Y-2.96
T3
X3.4022Y-2.2313
X3.4022Y-2.7487
T0
M30
