%TF.GenerationSoftware,KiCad,Pcbnew,5.1.6+dfsg1-1*%
%TF.CreationDate,2021-09-27T21:48:19-05:00*%
%TF.ProjectId,USB-BREAKOUT,5553422d-4252-4454-914b-4f55542e6b69,rev?*%
%TF.SameCoordinates,Original*%
%TF.FileFunction,Legend,Top*%
%TF.FilePolarity,Positive*%
%FSLAX46Y46*%
G04 Gerber Fmt 4.6, Leading zero omitted, Abs format (unit mm)*
G04 Created by KiCad (PCBNEW 5.1.6+dfsg1-1) date 2021-09-27 21:48:19*
%MOMM*%
%LPD*%
G01*
G04 APERTURE LIST*
%ADD10C,0.150000*%
%ADD11C,0.120000*%
G04 APERTURE END LIST*
D10*
X91798857Y-53000000D02*
X92998857Y-52600000D01*
X91798857Y-52200000D01*
X92370285Y-51400000D02*
X92427428Y-51228571D01*
X92484571Y-51171428D01*
X92598857Y-51114285D01*
X92770285Y-51114285D01*
X92884571Y-51171428D01*
X92941714Y-51228571D01*
X92998857Y-51342857D01*
X92998857Y-51800000D01*
X91798857Y-51800000D01*
X91798857Y-51400000D01*
X91856000Y-51285714D01*
X91913142Y-51228571D01*
X92027428Y-51171428D01*
X92141714Y-51171428D01*
X92256000Y-51228571D01*
X92313142Y-51285714D01*
X92370285Y-51400000D01*
X92370285Y-51800000D01*
X91798857Y-50600000D02*
X92770285Y-50600000D01*
X92884571Y-50542857D01*
X92941714Y-50485714D01*
X92998857Y-50371428D01*
X92998857Y-50142857D01*
X92941714Y-50028571D01*
X92884571Y-49971428D01*
X92770285Y-49914285D01*
X91798857Y-49914285D01*
X92941714Y-49400000D02*
X92998857Y-49228571D01*
X92998857Y-48942857D01*
X92941714Y-48828571D01*
X92884571Y-48771428D01*
X92770285Y-48714285D01*
X92656000Y-48714285D01*
X92541714Y-48771428D01*
X92484571Y-48828571D01*
X92427428Y-48942857D01*
X92370285Y-49171428D01*
X92313142Y-49285714D01*
X92256000Y-49342857D01*
X92141714Y-49400000D01*
X92027428Y-49400000D01*
X91913142Y-49342857D01*
X91856000Y-49285714D01*
X91798857Y-49171428D01*
X91798857Y-48885714D01*
X91856000Y-48714285D01*
X96986857Y-69122857D02*
X96986857Y-67922857D01*
X97272571Y-67922857D01*
X97444000Y-67980000D01*
X97558285Y-68094285D01*
X97615428Y-68208571D01*
X97672571Y-68437142D01*
X97672571Y-68608571D01*
X97615428Y-68837142D01*
X97558285Y-68951428D01*
X97444000Y-69065714D01*
X97272571Y-69122857D01*
X96986857Y-69122857D01*
X98186857Y-68665714D02*
X99101142Y-68665714D01*
X96986857Y-71408857D02*
X96986857Y-70208857D01*
X97272571Y-70208857D01*
X97444000Y-70266000D01*
X97558285Y-70380285D01*
X97615428Y-70494571D01*
X97672571Y-70723142D01*
X97672571Y-70894571D01*
X97615428Y-71123142D01*
X97558285Y-71237428D01*
X97444000Y-71351714D01*
X97272571Y-71408857D01*
X96986857Y-71408857D01*
X98186857Y-70951714D02*
X99101142Y-70951714D01*
X98644000Y-71408857D02*
X98644000Y-70494571D01*
X93691428Y-66525714D02*
X93862857Y-66582857D01*
X94148571Y-66582857D01*
X94262857Y-66525714D01*
X94320000Y-66468571D01*
X94377142Y-66354285D01*
X94377142Y-66240000D01*
X94320000Y-66125714D01*
X94262857Y-66068571D01*
X94148571Y-66011428D01*
X93920000Y-65954285D01*
X93805714Y-65897142D01*
X93748571Y-65840000D01*
X93691428Y-65725714D01*
X93691428Y-65611428D01*
X93748571Y-65497142D01*
X93805714Y-65440000D01*
X93920000Y-65382857D01*
X94205714Y-65382857D01*
X94377142Y-65440000D01*
X94834285Y-66525714D02*
X95005714Y-66582857D01*
X95291428Y-66582857D01*
X95405714Y-66525714D01*
X95462857Y-66468571D01*
X95520000Y-66354285D01*
X95520000Y-66240000D01*
X95462857Y-66125714D01*
X95405714Y-66068571D01*
X95291428Y-66011428D01*
X95062857Y-65954285D01*
X94948571Y-65897142D01*
X94891428Y-65840000D01*
X94834285Y-65725714D01*
X94834285Y-65611428D01*
X94891428Y-65497142D01*
X94948571Y-65440000D01*
X95062857Y-65382857D01*
X95348571Y-65382857D01*
X95520000Y-65440000D01*
X96720000Y-66582857D02*
X96320000Y-66011428D01*
X96034285Y-66582857D02*
X96034285Y-65382857D01*
X96491428Y-65382857D01*
X96605714Y-65440000D01*
X96662857Y-65497142D01*
X96720000Y-65611428D01*
X96720000Y-65782857D01*
X96662857Y-65897142D01*
X96605714Y-65954285D01*
X96491428Y-66011428D01*
X96034285Y-66011428D01*
X97120000Y-65382857D02*
X97920000Y-66582857D01*
X97920000Y-65382857D02*
X97120000Y-66582857D01*
X98377142Y-66125714D02*
X99291428Y-66125714D01*
X93691428Y-63985714D02*
X93862857Y-64042857D01*
X94148571Y-64042857D01*
X94262857Y-63985714D01*
X94320000Y-63928571D01*
X94377142Y-63814285D01*
X94377142Y-63700000D01*
X94320000Y-63585714D01*
X94262857Y-63528571D01*
X94148571Y-63471428D01*
X93920000Y-63414285D01*
X93805714Y-63357142D01*
X93748571Y-63300000D01*
X93691428Y-63185714D01*
X93691428Y-63071428D01*
X93748571Y-62957142D01*
X93805714Y-62900000D01*
X93920000Y-62842857D01*
X94205714Y-62842857D01*
X94377142Y-62900000D01*
X94834285Y-63985714D02*
X95005714Y-64042857D01*
X95291428Y-64042857D01*
X95405714Y-63985714D01*
X95462857Y-63928571D01*
X95520000Y-63814285D01*
X95520000Y-63700000D01*
X95462857Y-63585714D01*
X95405714Y-63528571D01*
X95291428Y-63471428D01*
X95062857Y-63414285D01*
X94948571Y-63357142D01*
X94891428Y-63300000D01*
X94834285Y-63185714D01*
X94834285Y-63071428D01*
X94891428Y-62957142D01*
X94948571Y-62900000D01*
X95062857Y-62842857D01*
X95348571Y-62842857D01*
X95520000Y-62900000D01*
X96720000Y-64042857D02*
X96320000Y-63471428D01*
X96034285Y-64042857D02*
X96034285Y-62842857D01*
X96491428Y-62842857D01*
X96605714Y-62900000D01*
X96662857Y-62957142D01*
X96720000Y-63071428D01*
X96720000Y-63242857D01*
X96662857Y-63357142D01*
X96605714Y-63414285D01*
X96491428Y-63471428D01*
X96034285Y-63471428D01*
X97120000Y-62842857D02*
X97920000Y-64042857D01*
X97920000Y-62842857D02*
X97120000Y-64042857D01*
X98377142Y-63585714D02*
X99291428Y-63585714D01*
X98834285Y-64042857D02*
X98834285Y-63128571D01*
X94177142Y-61502857D02*
X94177142Y-60302857D01*
X94462857Y-60302857D01*
X94634285Y-60360000D01*
X94748571Y-60474285D01*
X94805714Y-60588571D01*
X94862857Y-60817142D01*
X94862857Y-60988571D01*
X94805714Y-61217142D01*
X94748571Y-61331428D01*
X94634285Y-61445714D01*
X94462857Y-61502857D01*
X94177142Y-61502857D01*
X96062857Y-61502857D02*
X95662857Y-60931428D01*
X95377142Y-61502857D02*
X95377142Y-60302857D01*
X95834285Y-60302857D01*
X95948571Y-60360000D01*
X96005714Y-60417142D01*
X96062857Y-60531428D01*
X96062857Y-60702857D01*
X96005714Y-60817142D01*
X95948571Y-60874285D01*
X95834285Y-60931428D01*
X95377142Y-60931428D01*
X96520000Y-61160000D02*
X97091428Y-61160000D01*
X96405714Y-61502857D02*
X96805714Y-60302857D01*
X97205714Y-61502857D01*
X97605714Y-61502857D02*
X97605714Y-60302857D01*
X98177142Y-61502857D02*
X98177142Y-60302857D01*
X98862857Y-61502857D01*
X98862857Y-60302857D01*
X93834285Y-58905714D02*
X94005714Y-58962857D01*
X94291428Y-58962857D01*
X94405714Y-58905714D01*
X94462857Y-58848571D01*
X94520000Y-58734285D01*
X94520000Y-58620000D01*
X94462857Y-58505714D01*
X94405714Y-58448571D01*
X94291428Y-58391428D01*
X94062857Y-58334285D01*
X93948571Y-58277142D01*
X93891428Y-58220000D01*
X93834285Y-58105714D01*
X93834285Y-57991428D01*
X93891428Y-57877142D01*
X93948571Y-57820000D01*
X94062857Y-57762857D01*
X94348571Y-57762857D01*
X94520000Y-57820000D01*
X94977142Y-58905714D02*
X95148571Y-58962857D01*
X95434285Y-58962857D01*
X95548571Y-58905714D01*
X95605714Y-58848571D01*
X95662857Y-58734285D01*
X95662857Y-58620000D01*
X95605714Y-58505714D01*
X95548571Y-58448571D01*
X95434285Y-58391428D01*
X95205714Y-58334285D01*
X95091428Y-58277142D01*
X95034285Y-58220000D01*
X94977142Y-58105714D01*
X94977142Y-57991428D01*
X95034285Y-57877142D01*
X95091428Y-57820000D01*
X95205714Y-57762857D01*
X95491428Y-57762857D01*
X95662857Y-57820000D01*
X96005714Y-57762857D02*
X96691428Y-57762857D01*
X96348571Y-58962857D02*
X96348571Y-57762857D01*
X96977142Y-57762857D02*
X97777142Y-58962857D01*
X97777142Y-57762857D02*
X96977142Y-58962857D01*
X98234285Y-58505714D02*
X99148571Y-58505714D01*
X93834285Y-56365714D02*
X94005714Y-56422857D01*
X94291428Y-56422857D01*
X94405714Y-56365714D01*
X94462857Y-56308571D01*
X94520000Y-56194285D01*
X94520000Y-56080000D01*
X94462857Y-55965714D01*
X94405714Y-55908571D01*
X94291428Y-55851428D01*
X94062857Y-55794285D01*
X93948571Y-55737142D01*
X93891428Y-55680000D01*
X93834285Y-55565714D01*
X93834285Y-55451428D01*
X93891428Y-55337142D01*
X93948571Y-55280000D01*
X94062857Y-55222857D01*
X94348571Y-55222857D01*
X94520000Y-55280000D01*
X94977142Y-56365714D02*
X95148571Y-56422857D01*
X95434285Y-56422857D01*
X95548571Y-56365714D01*
X95605714Y-56308571D01*
X95662857Y-56194285D01*
X95662857Y-56080000D01*
X95605714Y-55965714D01*
X95548571Y-55908571D01*
X95434285Y-55851428D01*
X95205714Y-55794285D01*
X95091428Y-55737142D01*
X95034285Y-55680000D01*
X94977142Y-55565714D01*
X94977142Y-55451428D01*
X95034285Y-55337142D01*
X95091428Y-55280000D01*
X95205714Y-55222857D01*
X95491428Y-55222857D01*
X95662857Y-55280000D01*
X96005714Y-55222857D02*
X96691428Y-55222857D01*
X96348571Y-56422857D02*
X96348571Y-55222857D01*
X96977142Y-55222857D02*
X97777142Y-56422857D01*
X97777142Y-55222857D02*
X96977142Y-56422857D01*
X98234285Y-55965714D02*
X99148571Y-55965714D01*
X98691428Y-56422857D02*
X98691428Y-55508571D01*
D11*
%TO.C,J1*%
X76606000Y-55046000D02*
X76606000Y-71446000D01*
X76606000Y-71446000D02*
X79716000Y-71446000D01*
X76606000Y-55046000D02*
X79716000Y-55046000D01*
X81616000Y-55046000D02*
X88066000Y-55046000D01*
X81616000Y-71446000D02*
X88066000Y-71446000D01*
X90976000Y-55046000D02*
X90976000Y-71446000D01*
X90976000Y-71446000D02*
X90266000Y-71446000D01*
X90976000Y-55046000D02*
X90266000Y-55046000D01*
%TO.C,J3*%
X89976000Y-52638000D02*
X89976000Y-49978000D01*
X89916000Y-52638000D02*
X89976000Y-52638000D01*
X89916000Y-49978000D02*
X89976000Y-49978000D01*
X89916000Y-52638000D02*
X89916000Y-49978000D01*
X88646000Y-52638000D02*
X87316000Y-52638000D01*
X87316000Y-52638000D02*
X87316000Y-51308000D01*
%TO.C,J4*%
X90230000Y-76514000D02*
X90230000Y-73854000D01*
X90170000Y-76514000D02*
X90230000Y-76514000D01*
X90170000Y-73854000D02*
X90230000Y-73854000D01*
X90170000Y-76514000D02*
X90170000Y-73854000D01*
X88900000Y-76514000D02*
X87570000Y-76514000D01*
X87570000Y-76514000D02*
X87570000Y-75184000D01*
%TO.C,J2*%
X102676000Y-54296000D02*
X100016000Y-54296000D01*
X102676000Y-69596000D02*
X102676000Y-54296000D01*
X100016000Y-69596000D02*
X100016000Y-54296000D01*
X102676000Y-69596000D02*
X100016000Y-69596000D01*
X102676000Y-70866000D02*
X102676000Y-72196000D01*
X102676000Y-72196000D02*
X101346000Y-72196000D01*
%TO.C,J5*%
X82342000Y-73530000D02*
G75*
G02*
X83042000Y-74230000I0J-700000D01*
G01*
X81042000Y-74230000D02*
G75*
G02*
X81742000Y-73530000I700000J0D01*
G01*
X81742000Y-76330000D02*
G75*
G02*
X81042000Y-75630000I0J700000D01*
G01*
X83042000Y-75630000D02*
G75*
G02*
X82342000Y-76330000I-700000J0D01*
G01*
X81742000Y-73530000D02*
X82342000Y-73530000D01*
X81042000Y-75630000D02*
X81042000Y-74230000D01*
X82342000Y-76330000D02*
X81742000Y-76330000D01*
X83042000Y-74230000D02*
X83042000Y-75630000D01*
%TO.C,J1*%
D10*
X91468380Y-63579333D02*
X92182666Y-63579333D01*
X92325523Y-63626952D01*
X92420761Y-63722190D01*
X92468380Y-63865047D01*
X92468380Y-63960285D01*
X92468380Y-62579333D02*
X92468380Y-63150761D01*
X92468380Y-62865047D02*
X91468380Y-62865047D01*
X91611238Y-62960285D01*
X91706476Y-63055523D01*
X91754095Y-63150761D01*
X77684380Y-65793619D02*
X78493904Y-65793619D01*
X78589142Y-65746000D01*
X78636761Y-65698380D01*
X78684380Y-65603142D01*
X78684380Y-65412666D01*
X78636761Y-65317428D01*
X78589142Y-65269809D01*
X78493904Y-65222190D01*
X77684380Y-65222190D01*
X78636761Y-64793619D02*
X78684380Y-64650761D01*
X78684380Y-64412666D01*
X78636761Y-64317428D01*
X78589142Y-64269809D01*
X78493904Y-64222190D01*
X78398666Y-64222190D01*
X78303428Y-64269809D01*
X78255809Y-64317428D01*
X78208190Y-64412666D01*
X78160571Y-64603142D01*
X78112952Y-64698380D01*
X78065333Y-64746000D01*
X77970095Y-64793619D01*
X77874857Y-64793619D01*
X77779619Y-64746000D01*
X77732000Y-64698380D01*
X77684380Y-64603142D01*
X77684380Y-64365047D01*
X77732000Y-64222190D01*
X78160571Y-63460285D02*
X78208190Y-63317428D01*
X78255809Y-63269809D01*
X78351047Y-63222190D01*
X78493904Y-63222190D01*
X78589142Y-63269809D01*
X78636761Y-63317428D01*
X78684380Y-63412666D01*
X78684380Y-63793619D01*
X77684380Y-63793619D01*
X77684380Y-63460285D01*
X77732000Y-63365047D01*
X77779619Y-63317428D01*
X77874857Y-63269809D01*
X77970095Y-63269809D01*
X78065333Y-63317428D01*
X78112952Y-63365047D01*
X78160571Y-63460285D01*
X78160571Y-63793619D01*
X77684380Y-62888857D02*
X77684380Y-62269809D01*
X78065333Y-62603142D01*
X78065333Y-62460285D01*
X78112952Y-62365047D01*
X78160571Y-62317428D01*
X78255809Y-62269809D01*
X78493904Y-62269809D01*
X78589142Y-62317428D01*
X78636761Y-62365047D01*
X78684380Y-62460285D01*
X78684380Y-62746000D01*
X78636761Y-62841238D01*
X78589142Y-62888857D01*
X78779619Y-62079333D02*
X78779619Y-61317428D01*
X78398666Y-61126952D02*
X78398666Y-60650761D01*
X78684380Y-61222190D02*
X77684380Y-60888857D01*
X78684380Y-60555523D01*
%TO.C,J3*%
X85768380Y-51641333D02*
X86482666Y-51641333D01*
X86625523Y-51688952D01*
X86720761Y-51784190D01*
X86768380Y-51927047D01*
X86768380Y-52022285D01*
X85768380Y-51260380D02*
X85768380Y-50641333D01*
X86149333Y-50974666D01*
X86149333Y-50831809D01*
X86196952Y-50736571D01*
X86244571Y-50688952D01*
X86339809Y-50641333D01*
X86577904Y-50641333D01*
X86673142Y-50688952D01*
X86720761Y-50736571D01*
X86768380Y-50831809D01*
X86768380Y-51117523D01*
X86720761Y-51212761D01*
X86673142Y-51260380D01*
X91047428Y-52593714D02*
X91047428Y-51831809D01*
X91428380Y-52212761D02*
X90666476Y-52212761D01*
X90428380Y-50879428D02*
X90428380Y-51355619D01*
X90904571Y-51403238D01*
X90856952Y-51355619D01*
X90809333Y-51260380D01*
X90809333Y-51022285D01*
X90856952Y-50927047D01*
X90904571Y-50879428D01*
X90999809Y-50831809D01*
X91237904Y-50831809D01*
X91333142Y-50879428D01*
X91380761Y-50927047D01*
X91428380Y-51022285D01*
X91428380Y-51260380D01*
X91380761Y-51355619D01*
X91333142Y-51403238D01*
X90428380Y-50546095D02*
X91428380Y-50212761D01*
X90428380Y-49879428D01*
%TO.C,J4*%
X86022380Y-75517333D02*
X86736666Y-75517333D01*
X86879523Y-75564952D01*
X86974761Y-75660190D01*
X87022380Y-75803047D01*
X87022380Y-75898285D01*
X86355714Y-74612571D02*
X87022380Y-74612571D01*
X85974761Y-74850666D02*
X86689047Y-75088761D01*
X86689047Y-74469714D01*
X90730000Y-75945904D02*
X90682380Y-76041142D01*
X90682380Y-76184000D01*
X90730000Y-76326857D01*
X90825238Y-76422095D01*
X90920476Y-76469714D01*
X91110952Y-76517333D01*
X91253809Y-76517333D01*
X91444285Y-76469714D01*
X91539523Y-76422095D01*
X91634761Y-76326857D01*
X91682380Y-76184000D01*
X91682380Y-76088761D01*
X91634761Y-75945904D01*
X91587142Y-75898285D01*
X91253809Y-75898285D01*
X91253809Y-76088761D01*
X91682380Y-75469714D02*
X90682380Y-75469714D01*
X91682380Y-74898285D01*
X90682380Y-74898285D01*
X91682380Y-74422095D02*
X90682380Y-74422095D01*
X90682380Y-74184000D01*
X90730000Y-74041142D01*
X90825238Y-73945904D01*
X90920476Y-73898285D01*
X91110952Y-73850666D01*
X91253809Y-73850666D01*
X91444285Y-73898285D01*
X91539523Y-73945904D01*
X91634761Y-74041142D01*
X91682380Y-74184000D01*
X91682380Y-74422095D01*
%TO.C,J2*%
X101012666Y-72648380D02*
X101012666Y-73362666D01*
X100965047Y-73505523D01*
X100869809Y-73600761D01*
X100726952Y-73648380D01*
X100631714Y-73648380D01*
X101441238Y-72743619D02*
X101488857Y-72696000D01*
X101584095Y-72648380D01*
X101822190Y-72648380D01*
X101917428Y-72696000D01*
X101965047Y-72743619D01*
X102012666Y-72838857D01*
X102012666Y-72934095D01*
X101965047Y-73076952D01*
X101393619Y-73648380D01*
X102012666Y-73648380D01*
%TO.C,J5*%
X81708666Y-72096380D02*
X81708666Y-72810666D01*
X81661047Y-72953523D01*
X81565809Y-73048761D01*
X81422952Y-73096380D01*
X81327714Y-73096380D01*
X82661047Y-72096380D02*
X82184857Y-72096380D01*
X82137238Y-72572571D01*
X82184857Y-72524952D01*
X82280095Y-72477333D01*
X82518190Y-72477333D01*
X82613428Y-72524952D01*
X82661047Y-72572571D01*
X82708666Y-72667809D01*
X82708666Y-72905904D01*
X82661047Y-73001142D01*
X82613428Y-73048761D01*
X82518190Y-73096380D01*
X82280095Y-73096380D01*
X82184857Y-73048761D01*
X82137238Y-73001142D01*
X77137619Y-78128761D02*
X77280476Y-78176380D01*
X77518571Y-78176380D01*
X77613809Y-78128761D01*
X77661428Y-78081142D01*
X77709047Y-77985904D01*
X77709047Y-77890666D01*
X77661428Y-77795428D01*
X77613809Y-77747809D01*
X77518571Y-77700190D01*
X77328095Y-77652571D01*
X77232857Y-77604952D01*
X77185238Y-77557333D01*
X77137619Y-77462095D01*
X77137619Y-77366857D01*
X77185238Y-77271619D01*
X77232857Y-77224000D01*
X77328095Y-77176380D01*
X77566190Y-77176380D01*
X77709047Y-77224000D01*
X78137619Y-78176380D02*
X78137619Y-77176380D01*
X78566190Y-78176380D02*
X78566190Y-77652571D01*
X78518571Y-77557333D01*
X78423333Y-77509714D01*
X78280476Y-77509714D01*
X78185238Y-77557333D01*
X78137619Y-77604952D01*
X79185238Y-78176380D02*
X79090000Y-78128761D01*
X79042380Y-78081142D01*
X78994761Y-77985904D01*
X78994761Y-77700190D01*
X79042380Y-77604952D01*
X79090000Y-77557333D01*
X79185238Y-77509714D01*
X79328095Y-77509714D01*
X79423333Y-77557333D01*
X79470952Y-77604952D01*
X79518571Y-77700190D01*
X79518571Y-77985904D01*
X79470952Y-78081142D01*
X79423333Y-78128761D01*
X79328095Y-78176380D01*
X79185238Y-78176380D01*
X79947142Y-78176380D02*
X79947142Y-77509714D01*
X79947142Y-77700190D02*
X79994761Y-77604952D01*
X80042380Y-77557333D01*
X80137619Y-77509714D01*
X80232857Y-77509714D01*
X80423333Y-77509714D02*
X80804285Y-77509714D01*
X80566190Y-77176380D02*
X80566190Y-78033523D01*
X80613809Y-78128761D01*
X80709047Y-78176380D01*
X80804285Y-78176380D01*
X82232857Y-77652571D02*
X81899523Y-77652571D01*
X81899523Y-78176380D02*
X81899523Y-77176380D01*
X82375714Y-77176380D01*
X82899523Y-78176380D02*
X82804285Y-78128761D01*
X82756666Y-78081142D01*
X82709047Y-77985904D01*
X82709047Y-77700190D01*
X82756666Y-77604952D01*
X82804285Y-77557333D01*
X82899523Y-77509714D01*
X83042380Y-77509714D01*
X83137619Y-77557333D01*
X83185238Y-77604952D01*
X83232857Y-77700190D01*
X83232857Y-77985904D01*
X83185238Y-78081142D01*
X83137619Y-78128761D01*
X83042380Y-78176380D01*
X82899523Y-78176380D01*
X83661428Y-78176380D02*
X83661428Y-77509714D01*
X83661428Y-77700190D02*
X83709047Y-77604952D01*
X83756666Y-77557333D01*
X83851904Y-77509714D01*
X83947142Y-77509714D01*
X84994761Y-78128761D02*
X85137619Y-78176380D01*
X85375714Y-78176380D01*
X85470952Y-78128761D01*
X85518571Y-78081142D01*
X85566190Y-77985904D01*
X85566190Y-77890666D01*
X85518571Y-77795428D01*
X85470952Y-77747809D01*
X85375714Y-77700190D01*
X85185238Y-77652571D01*
X85090000Y-77604952D01*
X85042380Y-77557333D01*
X84994761Y-77462095D01*
X84994761Y-77366857D01*
X85042380Y-77271619D01*
X85090000Y-77224000D01*
X85185238Y-77176380D01*
X85423333Y-77176380D01*
X85566190Y-77224000D01*
X85994761Y-78176380D02*
X85994761Y-77176380D01*
X86423333Y-78176380D02*
X86423333Y-77652571D01*
X86375714Y-77557333D01*
X86280476Y-77509714D01*
X86137619Y-77509714D01*
X86042380Y-77557333D01*
X85994761Y-77604952D01*
X86899523Y-78176380D02*
X86899523Y-77509714D01*
X86899523Y-77176380D02*
X86851904Y-77224000D01*
X86899523Y-77271619D01*
X86947142Y-77224000D01*
X86899523Y-77176380D01*
X86899523Y-77271619D01*
X87756666Y-78128761D02*
X87661428Y-78176380D01*
X87470952Y-78176380D01*
X87375714Y-78128761D01*
X87328095Y-78033523D01*
X87328095Y-77652571D01*
X87375714Y-77557333D01*
X87470952Y-77509714D01*
X87661428Y-77509714D01*
X87756666Y-77557333D01*
X87804285Y-77652571D01*
X87804285Y-77747809D01*
X87328095Y-77843047D01*
X88375714Y-78176380D02*
X88280476Y-78128761D01*
X88232857Y-78033523D01*
X88232857Y-77176380D01*
X89185238Y-78176380D02*
X89185238Y-77176380D01*
X89185238Y-78128761D02*
X89090000Y-78176380D01*
X88899523Y-78176380D01*
X88804285Y-78128761D01*
X88756666Y-78081142D01*
X88709047Y-77985904D01*
X88709047Y-77700190D01*
X88756666Y-77604952D01*
X88804285Y-77557333D01*
X88899523Y-77509714D01*
X89090000Y-77509714D01*
X89185238Y-77557333D01*
X90947142Y-77224000D02*
X90851904Y-77176380D01*
X90709047Y-77176380D01*
X90566190Y-77224000D01*
X90470952Y-77319238D01*
X90423333Y-77414476D01*
X90375714Y-77604952D01*
X90375714Y-77747809D01*
X90423333Y-77938285D01*
X90470952Y-78033523D01*
X90566190Y-78128761D01*
X90709047Y-78176380D01*
X90804285Y-78176380D01*
X90947142Y-78128761D01*
X90994761Y-78081142D01*
X90994761Y-77747809D01*
X90804285Y-77747809D01*
X91423333Y-78176380D02*
X91423333Y-77176380D01*
X91994761Y-78176380D01*
X91994761Y-77176380D01*
X92470952Y-78176380D02*
X92470952Y-77176380D01*
X92709047Y-77176380D01*
X92851904Y-77224000D01*
X92947142Y-77319238D01*
X92994761Y-77414476D01*
X93042380Y-77604952D01*
X93042380Y-77747809D01*
X92994761Y-77938285D01*
X92947142Y-78033523D01*
X92851904Y-78128761D01*
X92709047Y-78176380D01*
X92470952Y-78176380D01*
%TD*%
M02*
